name C:\Users\u0101727\Documents\MyRepositories\upper-imu-dc\Results\main_mocap_tracking\Case_10\FLX01_angularVelocities_groundFrame.mot
datacolumns 4
datarows 47
range 0.51000000 0.97000000
endheader 
time	radius_imu_x	radius_imu_y	radius_imu_z	
          0.51000000	         -0.15394012	          1.58401619	         -0.21980624	
          0.52000000	         -0.22195394	          1.60549393	         -0.19098651	
          0.53000000	         -0.25536721	          1.58483997	         -0.15264962	
          0.54000000	         -0.25929593	          1.51390992	         -0.10370399	
          0.55000000	         -0.25140746	          1.48617208	         -0.07513472	
          0.56000000	         -0.23366513	          1.46184508	         -0.05695895	
          0.57000000	         -0.19706230	          1.29128939	          0.01385433	
          0.58000000	         -0.15414029	          1.03196294	          0.11911420	
          0.59000000	         -0.11375154	          0.76111846	          0.23121902	
          0.60000000	         -0.07608264	          0.49057633	          0.34306397	
          0.61000000	         -0.03938944	          0.21461219	          0.45429656	
          0.62000000	         -0.00174553	         -0.07707009	          0.56763028	
          0.63000000	          0.03734741	         -0.38618885	          0.68441535	
          0.64000000	          0.07603792	         -0.70021560	          0.80232311	
          0.65000000	          0.11001641	         -0.99334836	          0.91493200	
          0.66000000	          0.13338600	         -1.23369283	          1.01319127	
          0.67000000	          0.14024419	         -1.39348451	          1.08802910	
          0.68000000	          0.12635670	         -1.45795985	          1.13300813	
          0.69000000	          0.09026312	         -1.42930534	          1.14600209	
          0.70000000	          0.03346071	         -1.32472868	          1.12939604	
          0.71000000	         -0.04025126	         -1.17042012	          1.08899323	
          0.72000000	         -0.12588321	         -0.99443687	          1.03227004	
          0.73000000	         -0.21838624	         -0.82104821	          0.96668345	
          0.74000000	         -0.31348475	         -0.66773964	          0.89851234	
          0.75000000	         -0.40807304	         -0.54481337	          0.83239387	
          0.76000000	         -0.50020957	         -0.45674286	          0.77143313	
          0.77000000	         -0.58884046	         -0.40425581	          0.71761527	
          0.78000000	         -0.67339860	         -0.38637641	          0.67225302	
          0.79000000	         -0.75340006	         -0.40203069	          0.63631147	
          0.80000000	         -0.82813945	         -0.45102608	          0.61056578	
          0.81000000	         -0.89656588	         -0.53428873	          0.59562125	
          0.82000000	         -0.95738500	         -0.65333428	          0.59185254	
          0.83000000	         -1.00939880	         -0.80905657	          0.59928006	
          0.84000000	         -1.05202832	         -1.00014299	          0.61738151	
          0.85000000	         -1.08578811	         -1.22186892	          0.64494943	
          0.86000000	         -1.11230587	         -1.46627640	          0.68023842	
          0.87000000	         -1.13357568	         -1.72422595	          0.72156131	
          0.88000000	         -1.15055139	         -1.98869195	          0.76819191	
          0.89000000	         -1.16163959	         -2.25779839	          0.82116756	
          0.90000000	         -1.16179035	         -2.53611965	          0.88357908	
          0.91000000	         -1.14263609	         -2.83361066	          0.96016885	
          0.92000000	         -1.09372280	         -3.16252764	          1.05633406	
          0.93000000	         -1.00459958	         -3.53328081	          1.17674855	
          0.94000000	         -0.86745043	         -3.95018756	          1.32381767	
          0.95000000	         -0.67994277	         -4.40784016	          1.49617019	
          0.96000000	         -0.44789793	         -4.88866124	          1.68742850	
          0.97000000	         -0.18719599	         -5.36235647	          1.88557829	
